<?xml version="1.0" standalone="no"?>
<!DOCTYPE svg PUBLIC "-//W3C//DTD SVG 20010904//EN"
 "http://www.w3.org/TR/2001/REC-SVG-20010904/DTD/svg10.dtd">
<svg version="1.0" xmlns="http://www.w3.org/2000/svg"
 width="512.000000pt" height="512.000000pt" viewBox="0 0 512.000000 512.000000"
 preserveAspectRatio="xMidYMid meet">

<g transform="translate(0.000000,512.000000) scale(0.100000,-0.100000)"
fill="#000000" stroke="none">
<path d="M2340 4549 c-772 -87 -1421 -606 -1675 -1339 -123 -355 -141 -766
-50 -1130 102 -410 331 -780 643 -1041 424 -354 953 -521 1488 -468 854 84
1545 685 1753 1524 71 286 69 653 -4 945 -169 676 -668 1209 -1330 1423 -260
84 -562 116 -825 86z m410 -300 c290 -36 569 -142 800 -307 122 -86 306 -271
392 -392 367 -518 420 -1189 138 -1750 -346 -689 -1112 -1059 -1870 -904 -204
42 -465 157 -640 281 -121 86 -305 271 -393 393 -82 115 -195 341 -235 470
-111 353 -110 696 4 1055 38 117 154 346 231 455 87 122 272 306 393 392 339
241 783 357 1180 307z"/>
<path d="M2365 4144 c-554 -81 -1006 -408 -1241 -898 -61 -127 -93 -222 -126
-368 -20 -90 -23 -130 -23 -318 0 -188 3 -228 23 -318 32 -143 65 -238 127
-368 214 -451 611 -763 1117 -876 90 -20 130 -23 318 -23 188 0 228 3 318 23
143 32 238 65 368 127 451 214 763 611 876 1117 20 90 23 130 23 318 0 188 -3
228 -23 318 -96 427 -330 774 -681 1008 -93 63 -272 151 -371 184 -169 57
-265 72 -475 75 -110 2 -213 1 -230 -1z m275 -487 c48 -32 72 -78 77 -151 l6
-63 49 -11 c151 -35 326 -172 344 -269 15 -81 -47 -166 -130 -178 -55 -8 -88
6 -152 65 -32 29 -77 58 -112 71 -141 53 -347 4 -423 -102 -19 -26 -24 -47
-24 -91 0 -48 5 -62 31 -95 51 -63 139 -101 277 -119 200 -25 319 -78 433
-190 42 -42 74 -86 100 -140 39 -77 39 -79 39 -194 0 -115 0 -117 -39 -195
-64 -130 -189 -237 -334 -287 l-59 -20 -5 -68 c-9 -115 -66 -180 -158 -180
-90 0 -149 65 -157 174 l-6 63 -48 11 c-111 26 -263 124 -316 203 -67 101 4
239 124 239 53 0 73 -10 136 -66 118 -106 315 -117 458 -26 69 44 94 85 94
154 0 48 -5 62 -31 95 -51 63 -139 101 -277 119 -217 28 -379 109 -479 241
-73 97 -92 157 -93 288 0 107 1 112 38 189 61 127 189 238 335 288 l59 20 5
68 c9 115 66 180 158 180 32 0 58 -7 80 -23z"/>
</g>
</svg>
